# xmcd CD database file
#
# Track frame offsets:
#	150
#	12082
#	24303
#	42747
#	49336
#	68555
#	91087
#	99323
#	119196
#	132472
#	156054
#	159422
#	177197
#	199512
#	210326
#	224618
#	244158
#
# Disc length: 3360 seconds
#
# Revision: 4
# Processed by: cddbd v1.4PL0 Copyright (c) Steve Scherf et al.
# Submitted via: CDex 1.40Beta9
#
DISCID=e80d1e11
DTITLE=California Guitar Trio - Monday Night in San Francisco Disk 1
DYEAR=2000
DGENRE=Instrumental
TTITLE0=Scramble
TTITLE1=Melrose Avenue
TTITLE2=Punta Patri
TTITLE3="I Would Like to..."
TTITLE4=Pathways
TTITLE5=Discipline
TTITLE6="Monday Night in San Francisco..."
TTITLE7=Waters of Eden
TTITLE8="A Story..."
TTITLE9=Dance of Maya
TTITLE10="The Last Time..."
TTITLE11=Blockhead
TTITLE12=Improvisation
TTITLE13=Misirlou
TTITLE14="I Hope You're Having..."
TTITLE15=Belle
TTITLE16=Venezuelan Waltz No. 4
EXTD=Recorded live in San Franciso at the Great American Music Hall, May 1, 2000 YEAR: 2000 ID3G: 33
EXTT0=
EXTT1=
EXTT2=
EXTT3=
EXTT4=
EXTT5=
EXTT6=
EXTT7=
EXTT8=
EXTT9=
EXTT10=
EXTT11=
EXTT12=
EXTT13=
EXTT14=
EXTT15=
EXTT16=
PLAYORDER=
